<svg xmlns="http://www.w3.org/2000/svg" width="222.45" height="48.949" fill="none" xmlns:v="https://vecta.io/nano"><g fill-rule="evenodd"><path d="M39.294 43.189c-4.162 3.592-9.56 5.76-15.46 5.76C10.671 48.949 0 38.155 0 24.839S10.671.728 23.834.728c5.899 0 11.298 2.168 15.46 5.76 4.162-3.592 9.561-5.76 15.46-5.76 13.163 0 23.834 10.795 23.834 24.11s-10.671 24.11-23.834 24.11c-5.899 0-11.298-2.168-15.46-5.76z" fill="#ed0006"/><path d="M39.294 43.189a24.17 24.17 0 0 0 8.374-18.35 24.17 24.17 0 0 0-8.374-18.351c4.162-3.592 9.561-5.76 15.46-5.76 13.163 0 23.834 10.795 23.834 24.11s-10.671 24.11-23.834 24.11c-5.899 0-11.298-2.168-15.46-5.76z" fill="#f9a000"/><path d="M39.294 43.189a24.17 24.17 0 0 0 8.374-18.351 24.17 24.17 0 0 0-8.374-18.351 24.17 24.17 0 0 0-8.374 18.351 24.17 24.17 0 0 0 8.374 18.351z" fill="#ff5e00"/></g><path d="M146.235 47.831h-10.953L142.17.755h10.951l-6.888 47.076zm66.166 0h10.049L213.643.755h-8.806c-4.065 0-5.081 3.524-5.081 3.524l-16.259 43.552H194.9l2.258-7.048h14.001zm-12.082-16.74l5.758-17.622 3.274 17.622zm-16.034-19.007l1.581-10.07S181.012 0 175.932 0c-5.42 0-18.404 2.643-18.404 15.608 0 12.21 15.243 12.335 15.243 18.754s-13.662 5.287-18.179 1.259l-1.581 10.574s4.856 2.644 12.419 2.644c7.452 0 18.856-4.279 18.856-16.112 0-12.209-15.355-13.343-15.355-18.754 0-5.538 10.614-4.783 15.355-1.888zM126.024.755l-10.501 32.348-1.243-6.923s-2.484-8.56-10.162-15.482c-1.581-1.51-3.274-2.769-4.854-3.777l9.597 40.908h11.403L137.878.754h-11.855z" fill="#005ca9"/><path d="M113.327 24.397l-3.489-19.8S109.414.59 104.974.59H88.799l-.211.825s7.824 1.768 15.224 8.604c7.19 6.364 9.515 14.379 9.515 14.379z" fill="#f7a823"/></svg>