<svg xmlns="http://www.w3.org/2000/svg" xmlns:xlink="http://www.w3.org/1999/xlink" height="512" width="512" xmlns:v="https://vecta.io/nano"><path d="M456 80H56c-11.046 0-20 8.954-20 20s8.954 20 20 20h20v292c0 55.14 44.86 100 100 100h160c55.14 0 100-44.86 100-100V120h20c11.046 0 20-8.954 20-20s-8.954-20-20-20zm-60 332c0 33.084-26.916 60-60 60H176c-33.084 0-60-26.916-60-60V120h280zM296 40h-80c-11.046 0-20-8.954-20-20s8.954-20 20-20h80c11.046 0 20 8.954 20 20s-8.954 20-20 20z"/><use xlink:href="#B"/><use xlink:href="#B" x="80"/><use xlink:href="#B" x="-80"/><defs ><path id="B" d="M256 392c-11.046 0-20-8.954-20-20V220c0-11.046 8.954-20 20-20s20 8.954 20 20v152c0 11.046-8.954 20-20 20z"/></defs></svg>