<?xml version="1.0" encoding="UTF-8" standalone="no"?>
<svg
   xmlns:dc="http://purl.org/dc/elements/1.1/"
   xmlns:cc="http://creativecommons.org/ns#"
   xmlns:rdf="http://www.w3.org/1999/02/22-rdf-syntax-ns#"
   xmlns:svg="http://www.w3.org/2000/svg"
   xmlns="http://www.w3.org/2000/svg"
   xmlns:sodipodi="http://sodipodi.sourceforge.net/DTD/sodipodi-0.dtd"
   xmlns:inkscape="http://www.inkscape.org/namespaces/inkscape"
   width="122.42464"
   height="25.464001"
   version="1.1"
   id="svg4"
   sodipodi:docname="icon-paybylink.svg"
   inkscape:version="0.92.5 (2060ec1f9f, 2020-04-08)">
  <metadata
     id="metadata10">
    <rdf:RDF>
      <cc:Work
         rdf:about="">
        <dc:format>image/svg+xml</dc:format>
        <dc:type
           rdf:resource="http://purl.org/dc/dcmitype/StillImage" />
        <dc:title></dc:title>
      </cc:Work>
    </rdf:RDF>
  </metadata>
  <defs
     id="defs8" />
  <sodipodi:namedview
     pagecolor="#ffffff"
     bordercolor="#666666"
     borderopacity="1"
     objecttolerance="10"
     gridtolerance="10"
     guidetolerance="10"
     inkscape:pageopacity="0"
     inkscape:pageshadow="2"
     inkscape:window-width="2405"
     inkscape:window-height="1256"
     id="namedview6"
     showgrid="false"
     inkscape:zoom="9.4"
     inkscape:cx="43.062494"
     inkscape:cy="3.3735828"
     inkscape:window-x="0"
     inkscape:window-y="26"
     inkscape:window-maximized="0"
     inkscape:current-layer="g840" />
  <path
     d="m 10.613316,3.167 c 0.692,-0.839 1.159,-2.005 1.032,-3.167 -1,0.041 -2.2089999,0.668 -2.9209999,1.504 -0.645,0.742 -1.203,1.93 -1.049,3.069 1.112,0.086 2.246,-0.567 2.9379999,-1.406 z m 2.873,7.374 c -0.022,-2.513 2.05,-3.722 2.146,-3.782 -1.169,-1.7 -2.982,-1.936 -3.628,-1.962 -1.545,-0.153 -3.0179999,0.91 -3.7989999,0.91 -0.781,0 -1.99,-0.886 -3.274,-0.859 -1.684,0.024 -3.237,0.979 -4.10400002,2.486 -1.745,3.043 -0.443,7.537 1.26100002,9.998 0.834,1.205 1.826,2.559 3.133,2.51 1.258,-0.049 1.73,-0.814 3.25,-0.814 1.52,0 1.9459999,0.812 3.2709999,0.789 1.352,-0.029 2.21,-1.23 3.039,-2.441 0.953,-1.395 1.348,-2.75 1.368,-2.818 -0.027,-0.018 -2.633,-1.012 -2.663,-4.017 z m 16.096,-7.375 c -0.504,-0.486 -1.154,-0.864 -1.932,-1.124 -0.771,-0.257 -1.697,-0.387 -2.752,-0.387 a 18,18 0 0 0 -2.023,0.105 29.84,29.84 0 0 0 -1.674,0.235 l -0.163,0.028 V 19.69 h 1.613 v -7.443 c 0.543,0.093 1.165,0.142 1.851,0.142 0.913,0 1.768,-0.117 2.542,-0.346 a 5.681,5.681 0 0 0 2.038,-1.063 5.142,5.142 0 0 0 1.361,-1.769 c 0.33,-0.7 0.498,-1.523 0.498,-2.449 0,-0.766 -0.121,-1.455 -0.357,-2.048 a 4.685,4.685 0 0 0 -1.002,-1.548 z m -1.482,6.748 c -0.828,0.694 -2,1.046 -3.487,1.046 -0.409,0 -0.796,-0.018 -1.151,-0.051 a 5.4,5.4 0 0 1 -0.81,-0.136 V 3.26 c 0.213,-0.039 0.477,-0.076 0.787,-0.109 0.393,-0.042 0.866,-0.063 1.408,-0.063 a 6.71,6.71 0 0 1 1.843,0.239 4.243,4.243 0 0 1 1.417,0.694 c 0.387,0.3 0.691,0.69 0.902,1.16 0.213,0.476 0.32,1.044 0.32,1.687 -10e-4,1.335 -0.415,2.36 -1.229,3.046 z m 12.482,8.122 a 41.8,41.8 0 0 1 -0.025,-1.502 v -4.911 c 0,-0.582 -0.059,-1.176 -0.174,-1.766 a 4.481,4.481 0 0 0 -0.668,-1.644 c -0.328,-0.492 -0.787,-0.898 -1.361,-1.208 -0.574,-0.31 -1.32,-0.465 -2.219,-0.465 -0.656,0 -1.297,0.085 -1.902,0.254 a 6.04,6.04 0 0 0 -1.779,0.846 l -0.131,0.091 0.545,1.275 0.197,-0.133 a 5.272,5.272 0 0 1 1.396,-0.664 5.218,5.218 0 0 1 1.547,-0.238 c 0.672,0 1.209,0.122 1.592,0.362 0.389,0.243 0.682,0.544 0.871,0.896 a 3.41,3.41 0 0 1 0.383,1.15 7.78,7.78 0 0 1 0.09,1.11 v 0.142 c -2.391,-0.011 -4.258,0.387 -5.498,1.186 -1.301,0.838 -1.961,2.031 -1.961,3.545 0,0.436 0.078,0.875 0.232,1.309 a 3.38,3.38 0 0 0 0.703,1.168 c 0.312,0.34 0.715,0.617 1.197,0.824 0.482,0.207 1.045,0.314 1.676,0.314 a 4.693,4.693 0 0 0 2.534,-0.693 c 0.332,-0.205 0.627,-0.438 0.879,-0.689 a 4.99,4.99 0 0 0 0.307,-0.338 h 0.062 l 0.148,1.434 h 1.555 l -0.043,-0.23 a 9.898,9.898 0 0 1 -0.153,-1.425 z m -1.638,-2.516 c 0,0.172 -0.041,0.408 -0.119,0.691 a 3.53,3.53 0 0 1 -0.434,0.863 3.314,3.314 0 0 1 -1.689,1.275 3.946,3.946 0 0 1 -1.293,0.197 2.56,2.56 0 0 1 -0.85,-0.145 2.051,2.051 0 0 1 -0.715,-0.428 2.13,2.13 0 0 1 -0.502,-0.727 c -0.127,-0.293 -0.191,-0.656 -0.191,-1.078 0,-0.691 0.186,-1.252 0.551,-1.662 a 3.62,3.62 0 0 1 1.438,-0.975 7.377,7.377 0 0 1 1.943,-0.443 17.699,17.699 0 0 1 1.861,-0.081 z m 12.585,-8.693 -3.01,8.183 a 34.99,34.99 0 0 0 -0.523,1.477 l -0.225,0.689 h -0.057 a 60.845,60.845 0 0 0 -0.23,-0.715 28.91,28.91 0 0 0 -0.496,-1.4 l -3.219,-8.234 h -1.721 l 4.605,11.838 c 0.121,0.285 0.139,0.416 0.139,0.469 0,0.016 -0.006,0.113 -0.141,0.473 a 8.585,8.585 0 0 1 -0.977,1.816 c -0.369,0.502 -0.707,0.91 -1.008,1.211 -0.35,0.35 -0.711,0.637 -1.078,0.854 -0.375,0.221 -0.717,0.4 -1.02,0.535 l -0.174,0.078 0.561,1.363 0.178,-0.066 a 11.96,11.96 0 0 0 0.836,-0.383 c 0.42,-0.207 0.885,-0.535 1.381,-0.979 a 7.143,7.143 0 0 0 1.162,-1.309 16.05,16.05 0 0 0 1.014,-1.697 25.74,25.74 0 0 0 0.982,-2.148 l 1.025,-2.639 3.719,-9.416 z"
     id="path2"
     inkscape:connector-curvature="0" />
  <g
     id="g840"
     transform="matrix(0.11872557,0,0,0.11872557,42.611961,-19.747192)"
     style="stroke-width:8.42278576">
    <path
       id="path817"
       d="m 393.34512,267.08197 v 60.5 h -19.2 v -149.4 h 50.9 c 12.9,0 23.9,4.3 32.9,12.9 9.2,8.6 13.8,19.1 13.8,31.5 0,12.7 -4.6,23.2 -13.8,31.7 -8.9,8.5 -19.9,12.7 -32.9,12.7 h -31.7 z m 0,-70.5 v 52.1 h 32.1 c 7.6,0 14,-2.6 19,-7.7 5.1,-5.1 7.7,-11.3 7.7,-18.3 0,-6.9 -2.6,-13 -7.7,-18.1 -5,-5.3 -11.3,-7.9 -19,-7.9 h -32.1 z m 128.6,25.4 c 14.2,0 25.4,3.8 33.6,11.4 8.2,7.6 12.3,18 12.3,31.2 v 63 h -18.3 v -14.2 h -0.8 c -7.9,11.7 -18.5,17.5 -31.7,17.5 -11.3,0 -20.7,-3.3 -28.3,-10 -7.6,-6.7 -11.4,-15 -11.4,-25 0,-10.6 4,-19 12,-25.2 8,-6.3 18.7,-9.4 32,-9.4 11.4,0 20.8,2.1 28.1,6.3 v -4.4 c 0,-6.7 -2.6,-12.3 -7.9,-17 -5.3,-4.7 -11.5,-7 -18.6,-7 -10.7,0 -19.2,4.5 -25.4,13.6 l -16.9,-10.6 c 9.3,-13.5 23.1,-20.2 41.3,-20.2 z m -24.8,74.2 c 0,5 2.1,9.2 6.4,12.5 4.2,3.3 9.2,5 14.9,5 8.1,0 15.3,-3 21.6,-9 6.3,-6 9.5,-13 9.5,-21.1 -6,-4.7 -14.3,-7.1 -25,-7.1 -7.8,0 -14.3,1.9 -19.5,5.6 -5.3,3.9 -7.9,8.6 -7.9,14.1 z m 175.1,-70.9 -64,147.2 h -19.8 l 23.8,-51.5 -42.2,-95.7 h 20.9 l 30.4,73.4 h 0.4 l 29.6,-73.4 z"
       inkscape:connector-curvature="0"
       style="fill:#3c4043;stroke-width:8.42278576" />
    <path
       id="path819"
       d="m 345.29001,254.88197 a 101.06,101.06 0 0 0 -1.6,-18.01 h -80.48 v 33 l 46.35,0.01 c -1.88,10.98 -7.93,20.34 -17.2,26.58 v 21.41 h 27.59 c 16.11,-14.91 25.34,-36.95 25.34,-62.99 z"
       inkscape:connector-curvature="0"
       style="fill:#4285f4;stroke-width:8.42278576" />
    <path
       id="path821"
       d="m 292.37001,296.46197 c -7.68,5.18 -17.57,8.21 -29.14,8.21 -22.35,0 -41.31,-15.06 -48.1,-35.36 h -28.46 v 22.08 c 14.1,27.98 43.08,47.18 76.56,47.18 23.14,0 42.58,-7.61 56.73,-20.71 z"
       inkscape:connector-curvature="0"
       style="fill:#34a853;stroke-width:8.42278576" />
    <path
       id="path823"
       d="m 212.45001,252.93197 c 0,-5.7 0.95,-11.21 2.68,-16.39 v -22.08 h -28.46 c -5.83,11.57 -9.11,24.63 -9.11,38.47 0,13.84 3.29,26.9 9.11,38.47 l 28.46,-22.08 a 51.657,51.657 0 0 1 -2.68,-16.39 z"
       inkscape:connector-curvature="0"
       style="fill:#fabb05;stroke-width:8.42278576" />
    <path
       id="path825"
       d="m 263.23001,201.18197 c 12.63,0 23.94,4.35 32.87,12.85 l 24.45,-24.43 c -14.85,-13.83 -34.21,-22.32 -57.32,-22.32 -33.47,0 -62.46,19.2 -76.56,47.18 l 28.46,22.08 c 6.79,-20.3 25.75,-35.36 48.1,-35.36 z"
       inkscape:connector-curvature="0"
       style="fill:#e94235;stroke-width:8.42278576" />
  </g>
</svg>
